HIERARCHY
ROOT pelvis
{
  OFFSET 0 100 0
  CHANNELS 6 Xposition Yposition Zposition Zrotation Xrotation Yrotation
  JOINT pelvis_right_femur
  {
    OFFSET -10.78128 -3.44521 -0.5502486
    CHANNELS 3 Zrotation Xrotation Yrotation
    JOINT right_femur_tibia
    {
      OFFSET -0.8047443 -44.0398 -0.1307829
      CHANNELS 3 Zrotation Xrotation Yrotation
      JOINT right_tibia_foot
      {
        OFFSET 3.006224 -47.83518 -5
        CHANNELS 3 Zrotation Xrotation Yrotation
        End Site
        {
          OFFSET 0 -5 15
        }
      }
    }
  }
  JOINT pelvis_left_femur
  {
    OFFSET 10.78128 -3.44521 -0.5502486
    CHANNELS 3 Zrotation Xrotation Yrotation
    JOINT left_femur_tibia
    {
      OFFSET 0.8047443 -44.0398 -0.1307829
      CHANNELS 3 Zrotation Xrotation Yrotation
      JOINT left_tibia_foot
      {
        OFFSET -4.370144 -48.10324 -4.275266
        CHANNELS 3 Zrotation Xrotation Yrotation
        End Site
        {
          OFFSET 0 -5 15
        }
      }
    }
  }
  JOINT pelvis_spine1
  {
    OFFSET 0 6.468898 -3.129235
    CHANNELS 3 Zrotation Xrotation Yrotation
    JOINT spine1
    {
      OFFSET 0 23.15396 4.99043
      CHANNELS 3 Zrotation Xrotation Yrotation
      JOINT spine2
      {
        OFFSET 0 20.79997 -5.064912
        CHANNELS 3 Zrotation Xrotation Yrotation
        JOINT neck
        {
          OFFSET 0 14.38658 9.616178
          CHANNELS 3 Zrotation Xrotation Yrotation
          End Site
          {
            OFFSET 0 20 0
          }
        }
      }
      JOINT right_manubrium
      {
        OFFSET -5.722621 16.35077 3.967754
        CHANNELS 3 Zrotation Xrotation Yrotation
        JOINT right_clavicle
        {
          OFFSET -13.16364 1.694482 -4.693211
          CHANNELS 3 Zrotation Xrotation Yrotation
          JOINT right_humerus
          {
            OFFSET -28.5034 -0.3100689 -2.792744
            CHANNELS 3 Zrotation Xrotation Yrotation
            JOINT right_radius
            {
              OFFSET -25.15693 0.02248979 -1.271978
              CHANNELS 3 Zrotation Xrotation Yrotation
              End Site
              {
                OFFSET -15 0 0
              }
            }
          }
        }
      }
      JOINT left_manubrium
      {
        OFFSET 5.722621 16.35077 3.967754
        CHANNELS 3 Zrotation Xrotation Yrotation
        JOINT left_clavicle
        {
          OFFSET 13.16364 1.694482 -4.693211
          CHANNELS 3 Zrotation Xrotation Yrotation
          JOINT left_humerus
          {
            OFFSET 29.39168 -1.063119 -2.237045
            CHANNELS 3 Zrotation Xrotation Yrotation
            JOINT left_radius
            {
              OFFSET 24.59957 -0.9528479 0.9047498
              CHANNELS 3 Zrotation Xrotation Yrotation
              End Site
              {
                OFFSET 15 -0 -0
              }
            }
          }
        }
      }
    }
  }
}
MOTION
Frames: 19
Frame Time: 0.0416666666667
-1126.464 99.15724 2611.102 -9.742325 -5.187476 -62.45014 5.69968 -12.23396 0.8169671 -0 15.82786 -0 -8.082109 -0.8139486 -7.123142 -3.404217 13.26421 -6.989585 -0 47.74033 -0 -2.446582 -10.09759 16.60924 2.196064 -3.446868 6.460152 -0.5158871 15.81885 -6.810979 2.605591 19.55422 1.516108 -1.369546 -19.60425 6.131505 -5.388563 -27.16894 11.69108 96.37619 16.20991 -17.18185 -0 0 18.51784 -20.0575 15.7497 14.25662 0.8926297 -23.89916 -8.323916 -84.78916 15.10724 24.09542 0 0 -34.14892 3.684257 13.92257 11.21852
-1132.412 100.3336 2613.646 -10.40256 -5.184811 -63.37893 6.300397 -8.18316 1.597846 -0 17.13954 -0 -8.470982 -2.128796 -6.974422 -2.797633 8.729236 -6.638407 -0 52.62149 -0 -2.671694 -8.337054 17.2632 2.271942 -3.491646 6.775763 -0.6187446 15.97783 -6.640269 2.632704 19.32651 1.193798 -1.529869 -19.19474 5.92863 -5.215551 -27.90199 11.71564 95.70746 16.49776 -16.05176 -0 0 20.13563 -20.22341 16.46228 14.78526 0.5709229 -23.35961 -8.199162 -85.53478 14.79817 26.00082 0 0 -32.4027 3.145185 13.97771 11.93955
-1138.078 101.5106 2616.048 -10.76632 -5.228874 -64.36232 6.405749 -3.784465 2.050447 -0 17.49861 -0 -8.703466 -4.175263 -6.581841 -2.192308 3.23576 -6.346566 -0 54.63471 -0 -3.010248 -7.314235 17.9035 2.335359 -3.553721 7.134761 -0.7329578 16.16303 -6.436157 2.64209 19.05835 0.8693941 -1.673066 -18.7281 5.688702 -4.9785 -28.73235 11.73398 94.91076 16.74753 -14.76074 -0 0 21.95546 -20.42491 17.24292 15.43799 0.2013869 -22.80274 -8.1069 -86.44468 14.48463 28.22326 0 0 -30.43566 2.475184 13.91798 12.95043
-1143.475 102.431 2618.356 -10.73829 -5.223594 -65.28634 6.173022 0.6304891 2.283826 -0 16.92468 -0 -8.619837 -6.667854 -6.021371 -1.524328 -2.625867 -6.013435 -0 53.15331 -0 -3.423654 -6.949668 18.44325 2.379232 -3.631286 7.513034 -0.8481971 16.36617 -6.213816 2.626865 18.76731 0.5753033 -1.779434 -18.24447 5.425295 -4.690908 -29.6067 11.74909 94.04461 16.91927 -13.40552 -0 0 23.85067 -20.66265 18.0215 16.17533 -0.1845002 -22.27928 -8.062402 -87.47896 14.17225 30.62456 0 0 -28.36266 1.725719 13.72524 14.18526
-1148.664 102.9151 2620.64 -10.35213 -5.041777 -66.08819 5.833223 4.748285 2.440833 -0 15.8037 -0 -8.175237 -9.314659 -5.380155 -0.7045077 -8.227996 -5.557867 -0 48.31673 -0 -3.831377 -6.939128 18.8575 2.396484 -3.720491 7.883091 -0.9503552 16.57651 -5.990858 2.5795 18.47689 0.3488869 -1.830555 -17.80019 5.156537 -4.378444 -30.46881 11.76319 93.18418 16.96781 -12.09785 -0 0 25.67638 -20.93707 18.7089 16.94862 -0.5503629 -21.84278 -8.079743 -88.59934 13.87641 33.05885 0 0 -26.29028 0.9605801 13.38647 15.55618
-1153.736 102.8954 2622.979 -9.736722 -4.593829 -66.78045 5.559652 8.328812 2.603849 -0 14.62837 -0 -7.460463 -11.87379 -4.707915 0.2806374 -13.07383 -4.983776 -0 41.06574 -0 -4.124827 -6.930871 19.18536 2.38162 -3.814573 8.216846 -1.024463 16.7799 -5.78407 2.495008 18.21499 0.2250687 -1.81453 -17.45881 4.904758 -4.077134 -31.26432 11.77606 92.41102 16.85585 -10.94701 -0 0 27.28719 -21.24514 19.21171 17.7041 -0.8603566 -21.53757 -8.165652 -89.76908 13.62171 35.38425 0 0 -24.30565 0.2473568 12.90378 16.95991
-1158.793 102.4149 2625.445 -9.036761 -3.912588 -67.42807 5.365435 11.2877 2.759807 -0 13.82575 -0 -6.634302 -14.11215 -4.006091 1.277768 -16.8877 -4.426415 -0 32.89972 -0 -4.237758 -6.726755 19.4702 2.332079 -3.903462 8.488635 -1.058927 16.9582 -5.605727 2.374429 18.01089 0.2276655 -1.729886 -17.2763 4.694911 -3.826866 -31.94378 11.78407 91.79726 16.56923 -10.03888 -0 0 28.55737 -21.57756 19.4528 18.38798 -1.084921 -21.38653 -8.313543 -90.94907 13.4386 37.47051 0 0 -22.47208 -0.3532932 12.30378 18.28721
-1163.941 101.6027 2628.093 -8.350154 -3.184628 -68.09216 5.098022 13.72011 2.835328 -0 13.75508 -0 -5.831699 -15.71994 -3.259133 1.975137 -19.58998 -4.124777 -0 25.43405 -0 -4.217173 -6.384568 19.69924 2.249146 -3.974867 8.678134 -1.049458 17.09065 -5.461458 2.226822 17.89045 0.362246 -1.586344 -17.28457 4.550907 -3.661345 -32.46435 11.78086 91.38972 16.12754 -9.420798 -0 0 29.39811 -21.91689 19.39195 18.95183 -1.205383 -21.38494 -8.501838 -92.09057 13.35806 39.20221 0 0 -20.83788 -0.7977185 11.6401 19.43504
-1169.281 100.6406 2630.958 -7.734358 -2.678512 -68.77852 4.550386 15.79023 2.768551 -0 14.78365 -0 -5.132464 -16.30476 -2.487634 2.041145 -21.18264 -4.313259 -0 19.92452 -0 -4.209151 -6.155389 19.8153 2.13836 -4.017211 8.772776 -1.000491 17.15815 -5.351396 2.068345 17.87002 0.6133515 -1.402221 -17.48061 4.490152 -3.598475 -32.79176 11.75972 91.20187 15.58369 -9.100286 -0 0 29.76691 -22.23739 19.03863 19.3573 -1.2165 -21.50484 -8.699209 -93.12863 13.40572 40.48062 0 0 -19.45648 -1.065042 10.98513 20.32003
-1174.88 99.72998 2634.043 -7.259056 -2.601913 -69.42228 3.619403 17.53469 2.566562 -0 17.28032 -0 -4.600225 -15.53625 -1.783798 1.314845 -21.63226 -5.095701 -0 16.94196 -0 -4.352724 -6.302645 19.78876 2.009198 -4.023449 8.769058 -0.9228796 17.14929 -5.274369 1.918378 17.9513 0.9476739 -1.199899 -17.82729 4.518478 -3.635975 -32.90375 11.71681 91.21778 15.01073 -9.058335 -0 0 29.66637 -22.50716 18.45072 19.57948 -1.126598 -21.70871 -8.875184 -93.98239 13.5965 41.22793 0 0 -18.40533 -1.156224 10.41252 20.89005
-1180.74 99.0586 2637.31 -7.027912 -2.986225 -69.91606 2.395075 18.73239 2.304559 -0 21.46069 -0 -4.314638 -13.36312 -1.29147 -0.08060635 -20.84762 -6.379403 -0 16.30748 -0 -4.670161 -6.935485 19.66588 1.873803 -3.993751 8.672125 -0.8290331 17.06477 -5.232444 1.794386 18.12025 1.322384 -1.00129 -18.26632 4.628334 -3.754561 -32.79381 11.65323 91.40543 14.48146 -9.268372 -0 0 29.1337 -22.69276 17.71824 19.60827 -0.9551796 -21.96529 -9.010558 -94.56534 13.93035 41.39418 0 0 -17.78805 -1.087327 9.978493 21.12929
-1186.781 98.76565 2640.678 -7.133817 -3.679885 -70.1628 1.123172 18.95798 2.06636 -0 27.1693 -0 -4.340889 -10.13495 -1.136091 -1.782672 -18.76951 -7.910292 -0 17.27704 -0 -5.043477 -7.967912 19.54334 1.744925 -3.935468 8.493798 -0.7286293 16.91755 -5.23247 1.707932 18.35085 1.695339 -0.8244524 -18.73636 4.801443 -3.92649 -32.47282 11.57502 91.73097 14.0503 -9.708998 -0 0 28.22711 -22.76589 16.93896 19.44787 -0.7281631 -22.25884 -9.101913 -94.80249 14.38966 40.96358 0 0 -17.71448 -0.8809473 9.710885 21.05452
-1192.854 98.90658 2644.04 -7.591277 -4.444457 -70.11913 0.08078936 17.79253 1.882519 -0 33.75331 -0 -4.676638 -6.528175 -1.362733 -3.366398 -15.48867 -9.392277 -0 18.86746 -0 -5.291127 -9.205443 19.49459 1.633765 -3.860433 8.250012 -0.6273947 16.72872 -5.283347 1.66335 18.61226 2.033168 -0.6815797 -19.18733 5.014374 -4.124462 -31.96712 11.49127 92.16684 13.74512 -10.36451 -0 0 27.01553 -22.70996 16.19608 19.11488 -0.4719208 -22.58784 -9.158609 -94.64709 14.93876 39.95701 0 0 -18.26765 -0.5600187 9.609776 20.70398
-1198.784 99.43038 2647.293 -8.306151 -5.076025 -69.80523 -0.5536715 15.05061 1.718345 -0 40.1312 -0 -5.240474 -3.318196 -1.925573 -4.532387 -11.28963 -10.61039 -0 20.18817 -0 -5.283927 -10.47385 19.50805 1.548498 -3.781119 7.958686 -0.5288137 16.52139 -5.390893 1.65892 18.8759 2.314895 -0.5782881 -19.58615 5.244201 -4.327094 -31.31403 11.41189 92.69178 13.56991 -11.2164 -0 0 25.57438 -22.52453 15.54563 18.63594 -0.2080814 -22.95584 -9.195191 -94.09103 15.5265 38.43038 0 0 -19.47365 -0.1455699 9.656432 20.12422
-1204.432 100.1853 2650.36 -9.100792 -5.477427 -69.28424 -0.7668752 10.88829 1.501314 -0 45.0525 -0 -5.907493 -1.121166 -2.714335 -5.190898 -6.591319 -11.47714 -0 20.67623 -0 -5.018054 -11.70299 19.48291 1.493751 -3.707402 7.63837 -0.4365546 16.31567 -5.553548 1.689248 19.12022 2.531335 -0.5142051 -19.91538 5.472262 -4.520402 -30.55695 11.34578 93.28631 13.51327 -12.23368 -0 0 23.98513 -22.22614 15.01486 18.04511 0.04924761 -23.36107 -9.223746 -93.16762 16.09237 36.47112 0 0 -21.28519 0.3426177 9.824372 19.36009
-1209.743 100.9577 2653.211 -9.77468 -5.659647 -68.63269 -0.6873884 5.751491 1.149272 -0 47.45238 -0 -6.557077 -0.2154262 -3.587925 -5.427884 -1.831327 -11.99999 -0 20.18838 -0 -4.602834 -12.92774 19.28655 1.470805 -3.644873 7.307364 -0.3555163 16.1259 -5.761077 1.747507 19.3324 2.682118 -0.4847061 -20.16932 5.685653 -4.697006 -29.74152 11.29968 93.92833 13.55679 -13.36812 -0 0 22.33458 -21.84564 14.60793 17.38089 0.2933989 -23.79017 -9.249279 -91.94826 16.57588 34.19425 0 0 -23.58149 0.8844347 10.08763 18.45052
-1214.764 101.5318 2655.856 -10.16968 -5.696276 -67.92051 -0.5021145 0.2208779 0.5933183 -0 46.76487 -0 -7.102674 -0.4942345 -4.406739 -5.414225 2.641505 -12.22473 -0 18.95903 -0 -4.184699 -14.21958 18.83428 1.478119 -3.594778 6.982945 -0.2909592 15.96025 -5.996423 1.826807 19.50782 2.772204 -0.4832872 -20.35054 5.877039 -4.854716 -28.91338 11.27757 94.59126 13.68043 -14.55611 -0 0 20.71139 -21.42274 14.31426 16.68317 0.5228474 -24.21792 -9.268907 -90.53446 16.92763 31.73754 0 0 -26.18187 1.458351 10.42443 17.42982
-1219.622 101.747 2658.341 -10.21449 -5.668305 -67.20511 -0.3635789 -5.152774 -0.1900529 -0 43.08244 -0 -7.496502 -1.543903 -5.064324 -5.318084 6.622923 -12.19763 -0 17.47204 -0 -3.86435 -15.5965 18.13974 1.511947 -3.55511 6.68066 -0.2466409 15.82185 -6.239397 1.920654 19.64804 2.808967 -0.5038185 -20.46745 6.043411 -4.995063 -28.11676 11.2803 95.24504 13.86473 -15.72535 -0 0 19.20036 -20.99929 14.11657 15.99037 0.7378048 -24.61205 -9.27418 -89.04558 17.11919 29.25396 0 0 -28.86932 2.041208 10.81693 16.33215
-1224.48 101.5351 2660.729 -9.936579 -5.626388 -66.53337 -0.3241909 -9.950977 -1.142599 -0 37.12033 -0 -7.721909 -2.802887 -5.512321 -5.249049 10.04673 -11.95289 -0 16.30878 -0 -3.654673 -16.9645 17.31118 1.567022 -3.522324 6.413901 -0.2233734 15.7107 -6.470531 2.02287 19.7578 2.80008 -0.5420101 -20.53189 6.184193 -5.121524 -27.39341 11.30575 95.85811 14.09154 -16.80312 -0 0 17.87672 -20.61265 13.99755 15.33756 0.9368555 -24.94005 -9.25511 -87.60327 17.14809 26.90053 0 0 -31.41991 2.608538 11.24884 15.19683
